<svg xmlns="http://www.w3.org/2000/svg" version="1.1" xmlns:xlink="http://www.w3.org/1999/xlink" xmlns:svgjs="http://svgjs.dev/svgjs" width="40" height="40"><svg width="40" height="40" viewBox="0 0 111 111" fill="none" xmlns="http://www.w3.org/2000/svg">
    <path d="M60.4617 8L30.1654 8.2479C27.246 8.27179 24.648 10.105 23.647 12.8475L0.43059 76.8314C-1.24459 81.4208 2.17805 86.2713 7.06353 86.2313L32.1197 86.0263L35.4147 76.999L9.87391 77.208L31.6259 17.2362L57.1666 17.0273L60.4617 8Z" fill="#6E6E6E"></path>
    <path d="M49.4149 102.999L79.7122 102.999C82.6317 102.999 85.2446 101.187 86.268 98.4529L110.013 34.4524C111.726 29.8768 108.343 24.9985 103.457 24.9985L78.4004 24.9985L75.0316 33.9985L100.573 33.9985L78.3253 93.999L52.7837 93.999L49.4149 102.999Z" fill="#6E6E6E"></path>
    <path d="M22 61L86 8L57 50L89.9997 49.9997L26 103L55 61H22Z" fill="#DB5860"></path>
</svg><style>@media (prefers-color-scheme: light) { :root { filter: none; } }
@media (prefers-color-scheme: dark) { :root { filter: none; } }
</style></svg>